<svg xmlns="http://www.w3.org/2000/svg" width="960" height="580" fill="none" aria-labelledby="title desc" role="img" viewBox="0 0 960 580"><title id="title">ClaimSight AI — Insurance Claim Verification Platform</title><desc id="desc">A polished AI-powered insurance claim verification dashboard featuring Vision AI, decision engine, and trust scoring.</desc><defs><linearGradient id="bg" x1="0" x2="960" y1="0" y2="580" gradientUnits="userSpaceOnUse"><stop stop-color="#F0F7FF"/><stop offset="1" stop-color="#E8F3FF"/></linearGradient><linearGradient id="headerGrad" x1="0" x2="960" y1="0" y2="0" gradientUnits="userSpaceOnUse"><stop stop-color="#F8FBFF"/><stop offset="1" stop-color="#EFF6FF"/></linearGradient><linearGradient id="trustGrad" x1="0" x2="190" y1="0" y2="0" gradientUnits="userSpaceOnUse"><stop stop-color="#1F6FEB"/><stop offset="1" stop-color="#58A6FF"/></linearGradient><linearGradient id="imgGrad" x1="106" x2="106" y1="168" y2="340" gradientUnits="userSpaceOnUse"><stop stop-color="#DBEAFE"/><stop offset="1" stop-color="#BFDBFE"/></linearGradient><filter id="cardShadow" width="108%" height="108%" x="-4%" y="-4%"><feDropShadow dx="0" dy="2" flood-color="#1F6FEB" flood-opacity=".07" stdDeviation="6"/></filter></defs><rect width="960" height="580" fill="url(#bg)" rx="28"/><rect width="896" height="524" x="32" y="28" fill="#fff" stroke="#D7E8FF" stroke-width="1" filter="url(#cardShadow)" rx="22"/><rect width="896" height="56" x="32" y="28" fill="url(#headerGrad)" rx="22"/><rect width="896" height="22" x="32" y="62" fill="url(#headerGrad)"/><circle cx="70" cy="56" r="8" fill="#FF5F57"/><circle cx="94" cy="56" r="8" fill="#FFBD2E"/><circle cx="118" cy="56" r="8" fill="#28C840"/><text x="148" y="63" fill="#0F172A" font-family="Inter, Segoe UI, Arial, sans-serif" font-size="18" font-weight="750">ClaimSight AI</text><text x="560" y="63" fill="#64748B" font-family="Inter, Segoe UI, Arial, sans-serif" font-size="13" font-weight="500">Dashboard</text><text x="632" y="63" fill="#64748B" font-family="Inter, Segoe UI, Arial, sans-serif" font-size="13" font-weight="500">Claims</text><text x="690" y="63" fill="#64748B" font-family="Inter, Segoe UI, Arial, sans-serif" font-size="13" font-weight="500">Reports</text><rect width="152" height="26" x="740" y="44" fill="#1F6FEB" fill-opacity=".08" stroke="#1F6FEB" stroke-opacity=".3" stroke-width="1" rx="13"/><circle cx="757" cy="57" r="4" fill="#22C55E"/><text x="769" y="62" fill="#1F6FEB" font-family="Inter, Segoe UI, Arial, sans-serif" font-size="12" font-weight="700">Live · Verified Mode</text><rect width="284" height="388" x="56" y="108" fill="#F8FAFC" stroke="#D7E8FF" stroke-width="1" filter="url(#cardShadow)" rx="18"/><text x="78" y="138" fill="#0F172A" font-family="Inter, Segoe UI, Arial, sans-serif" font-size="15" font-weight="700">Evidence Panel</text><text x="78" y="156" fill="#64748B" font-family="Inter, Segoe UI, Arial, sans-serif" font-size="12">Vehicle damage — front bumper</text><rect width="252" height="160" x="72" y="166" fill="url(#imgGrad)" rx="14"/><path fill="none" stroke="#1F6FEB" stroke-linecap="round" stroke-linejoin="round" stroke-width="8" d="M98 300L158 236L200 280L234 250L298 300"/><circle cx="262" cy="210" r="20" fill="#58A6FF" fill-opacity=".8"/><circle cx="262" cy="210" r="12" fill="#fff"/><path stroke="#1F6FEB" stroke-linecap="round" stroke-linejoin="round" stroke-width="2" d="M257 210L261 214L269 206"/><text x="78" y="350" fill="#0F172A" font-family="Inter, Segoe UI, Arial, sans-serif" font-size="14" font-weight="700">Analysis complete</text><text x="78" y="370" fill="#22C55E" font-family="Inter, Segoe UI, Arial, sans-serif" font-size="12" font-weight="600">✓ 4 damage zones detected</text><rect width="220" height="10" x="78" y="388" fill="#1F6FEB" fill-opacity=".12" rx="5"/><rect width="180" height="10" x="78" y="388" fill="url(#trustGrad)" rx="5"/><text x="78" y="416" fill="#64748B" font-family="Inter, Segoe UI, Arial, sans-serif" font-size="12">Image confidence · 82%</text><rect width="246" height="48" x="78" y="430" fill="#EFF6FF" stroke="#DBEAFE" stroke-width="1" rx="10"/><text x="94" y="452" fill="#1F6FEB" font-family="Inter, Segoe UI, Arial, sans-serif" font-size="12" font-weight="700">CLM-2024-00481</text><text x="94" y="468" fill="#64748B" font-family="Inter, Segoe UI, Arial, sans-serif" font-size="11">Submitted 2024-11-14 · Auto policy</text><rect width="572" height="86" x="360" y="108" fill="#fff" stroke="#D7E8FF" stroke-width="1" filter="url(#cardShadow)" rx="16"/><text x="384" y="142" fill="#0F172A" font-family="Inter, Segoe UI, Arial, sans-serif" font-size="15" font-weight="700">Decision Engine</text><text x="384" y="164" fill="#64748B" font-family="Inter, Segoe UI, Arial, sans-serif" font-size="13">Cross-referencing document metadata, image signals, and claim history via Gemini Vision.</text><rect width="78" height="28" x="832" y="122" fill="#DCFCE7" rx="14"/><text x="871" y="141" fill="#166534" font-family="Inter, Segoe UI, Arial, sans-serif" font-size="12" font-weight="750" text-anchor="middle">82% trust</text><rect width="274" height="166" x="360" y="212" fill="#fff" stroke="#D7E8FF" stroke-width="1" filter="url(#cardShadow)" rx="16"/><text x="382" y="244" fill="#0F172A" font-family="Inter, Segoe UI, Arial, sans-serif" font-size="14" font-weight="700">Evidence Signals</text><rect width="200" height="10" x="382" y="258" fill="#DBEAFE" rx="5"/><rect width="180" height="10" x="382" y="258" fill="#1F6FEB" rx="5"/><text x="382" y="285" fill="#64748B" font-family="Inter, Segoe UI, Arial, sans-serif" font-size="12">Photo match</text><rect width="200" height="10" x="382" y="292" fill="#DBEAFE" rx="5"/><rect width="148" height="10" x="382" y="292" fill="#58A6FF" rx="5"/><text x="382" y="320" fill="#64748B" font-family="Inter, Segoe UI, Arial, sans-serif" font-size="12">Document consistency</text><rect width="200" height="10" x="382" y="327" fill="#DBEAFE" rx="5"/><rect width="162" height="10" x="382" y="327" fill="#1F6FEB" rx="5"/><text x="382" y="355" fill="#64748B" font-family="Inter, Segoe UI, Arial, sans-serif" font-size="12">Claim history</text><rect width="278" height="166" x="654" y="212" fill="#fff" stroke="#D7E8FF" stroke-width="1" filter="url(#cardShadow)" rx="16"/><text x="676" y="244" fill="#0F172A" font-family="Inter, Segoe UI, Arial, sans-serif" font-size="14" font-weight="700">Verdict</text><circle cx="793" cy="320" r="52" fill="#1F6FEB" fill-opacity=".07"/><circle cx="793" cy="320" r="36" fill="#1F6FEB" fill-opacity=".1"/><path fill="none" stroke="#1F6FEB" stroke-linecap="round" stroke-linejoin="round" stroke-width="9" d="M769 320L784 335L820 295"/><text x="793" y="358" fill="#1F6FEB" font-family="Inter, Segoe UI, Arial, sans-serif" font-size="13" font-weight="700" text-anchor="middle">Approved</text><rect width="572" height="100" x="360" y="396" fill="#F8FAFC" stroke="#D7E8FF" stroke-width="1" rx="16"/><text x="384" y="424" fill="#0F172A" font-family="Inter, Segoe UI, Arial, sans-serif" font-size="13" font-weight="700">Stack</text><rect width="72" height="26" x="384" y="436" fill="#1F6FEB" fill-opacity=".1" stroke="#1F6FEB" stroke-opacity=".3" stroke-width="1" rx="13"/><text x="420" y="454" fill="#1F6FEB" font-family="Inter, Segoe UI, Arial, sans-serif" font-size="12" font-weight="600" text-anchor="middle">Python</text><rect width="70" height="26" x="466" y="436" fill="#1F6FEB" fill-opacity=".1" stroke="#1F6FEB" stroke-opacity=".3" stroke-width="1" rx="13"/><text x="501" y="454" fill="#1F6FEB" font-family="Inter, Segoe UI, Arial, sans-serif" font-size="12" font-weight="600" text-anchor="middle">Gemini</text><rect width="80" height="26" x="546" y="436" fill="#1F6FEB" fill-opacity=".1" stroke="#1F6FEB" stroke-opacity=".3" stroke-width="1" rx="13"/><text x="586" y="454" fill="#1F6FEB" font-family="Inter, Segoe UI, Arial, sans-serif" font-size="12" font-weight="600" text-anchor="middle">Streamlit</text><rect width="72" height="26" x="636" y="436" fill="#1F6FEB" fill-opacity=".1" stroke="#1F6FEB" stroke-opacity=".3" stroke-width="1" rx="13"/><text x="672" y="454" fill="#1F6FEB" font-family="Inter, Segoe UI, Arial, sans-serif" font-size="12" font-weight="600" text-anchor="middle">Vision AI</text><rect width="102" height="26" x="718" y="436" fill="#1F6FEB" fill-opacity=".1" stroke="#1F6FEB" stroke-opacity=".3" stroke-width="1" rx="13"/><text x="769" y="454" fill="#1F6FEB" font-family="Inter, Segoe UI, Arial, sans-serif" font-size="12" font-weight="600" text-anchor="middle">Multimodal AI</text><text x="384" y="482" fill="#64748B" font-family="Inter, Segoe UI, Arial, sans-serif" font-size="12">TechThrive 2.0 National Hackathon · Winner</text></svg>