<svg xmlns="http://www.w3.org/2000/svg" width="1200" height="90" aria-labelledby="ct-title" role="img" viewBox="0 0 1200 90"><title id="ct-title">Contact</title><defs><linearGradient id="bg" x1="0%" x2="100%" y1="0%" y2="100%"><stop offset="0%" stop-color="#060D19"/><stop offset="100%" stop-color="#0D1A2E"/></linearGradient><linearGradient id="accent" x1="0%" x2="100%" y1="0%" y2="0%"><stop offset="0%" stop-color="#1F6FEB" stop-opacity="0"/><stop offset="20%" stop-color="#1F6FEB" stop-opacity=".5"/><stop offset="50%" stop-color="#58A6FF" stop-opacity=".9"/><stop offset="80%" stop-color="#1F6FEB" stop-opacity=".5"/><stop offset="100%" stop-color="#1F6FEB" stop-opacity="0"/></linearGradient><radialGradient id="glow" cx="50%" cy="50%" r="50%" gradientUnits="objectBoundingBox"><stop offset="0%" stop-color="#1F6FEB" stop-opacity=".12"/><stop offset="100%" stop-color="#1F6FEB" stop-opacity="0"/></radialGradient><linearGradient id="scan" x1="0%" x2="100%" y1="0%" y2="0%"><stop offset="0%" stop-color="#58A6FF" stop-opacity="0"/><stop offset="45%" stop-color="#58A6FF" stop-opacity="0"/><stop offset="50%" stop-color="#58A6FF" stop-opacity=".6"/><stop offset="55%" stop-color="#58A6FF" stop-opacity="0"/><stop offset="100%" stop-color="#58A6FF" stop-opacity="0"/></linearGradient></defs><rect width="1200" height="90" fill="url(#bg)"/><rect width="1200" height="90" fill="url(#glow)"/><g fill="#3B82F6" opacity=".15"><circle cx="100" cy="22" r="1"/><circle cx="200" cy="22" r="1"/><circle cx="300" cy="22" r="1"/><circle cx="400" cy="22" r="1"/><circle cx="500" cy="22" r="1"/><circle cx="600" cy="22" r="1"/><circle cx="700" cy="22" r="1"/><circle cx="800" cy="22" r="1"/><circle cx="900" cy="22" r="1"/><circle cx="1000" cy="22" r="1"/><circle cx="1100" cy="22" r="1"/><circle cx="100" cy="68" r="1"/><circle cx="200" cy="68" r="1"/><circle cx="300" cy="68" r="1"/><circle cx="400" cy="68" r="1"/><circle cx="500" cy="68" r="1"/><circle cx="600" cy="68" r="1"/><circle cx="700" cy="68" r="1"/><circle cx="800" cy="68" r="1"/><circle cx="900" cy="68" r="1"/><circle cx="1000" cy="68" r="1"/><circle cx="1100" cy="68" r="1"/></g><rect width="1200" height="90" fill="url(#scan)" opacity=".4"><animate attributeName="x" dur="9s" repeatCount="indefinite" values="-1200;1200"/></rect><circle cx="500" cy="45" r="2.5" fill="#58A6FF"><animate attributeName="opacity" dur="4.5s" repeatCount="indefinite" values="0.1;0.45;0.1"/><animate attributeName="r" dur="4.5s" repeatCount="indefinite" values="2;3;2"/></circle><circle cx="700" cy="45" r="2.5" fill="#1F6FEB"><animate attributeName="opacity" begin="2s" dur="5.5s" repeatCount="indefinite" values="0.08;0.5;0.08"/><animate attributeName="r" begin="2s" dur="5.5s" repeatCount="indefinite" values="2;3;2"/></circle><circle cx="600" cy="80" r="2" fill="#58A6FF"><animate attributeName="r" dur="3s" repeatCount="indefinite" values="1.5;3;1.5"/><animate attributeName="opacity" dur="3s" repeatCount="indefinite" values="0.4;1;0.4"/></circle><text x="600" y="32" fill="#58A6FF" fill-opacity=".6" font-family="-apple-system,BlinkMacSystemFont,'Segoe UI',Helvetica,Arial,sans-serif" font-size="10" font-weight="500" letter-spacing="4" text-anchor="middle">GET IN TOUCH</text><text x="600" y="62" fill="#E6EDF3" font-family="-apple-system,BlinkMacSystemFont,'Segoe UI',Helvetica,Arial,sans-serif" font-size="24" font-weight="700" letter-spacing="-.5" text-anchor="middle">Contact</text><line x1="0" x2="1200" y1="89" y2="89" stroke="url(#accent)" stroke-width="1"><animate attributeName="opacity" dur="4s" repeatCount="indefinite" values="0.7;1;0.7"/></line><rect width="1199" height="89" x=".5" y=".5" fill="none" stroke="#21262D" stroke-width="1"/></svg>