<svg xmlns="http://www.w3.org/2000/svg" width="1200" height="100" aria-labelledby="wib-title" role="img" viewBox="0 0 1200 100"><title id="wib-title">Why I Build</title><defs><linearGradient id="bg" x1="0%" x2="100%" y1="0%" y2="100%"><stop offset="0%" stop-color="#060D19"/><stop offset="100%" stop-color="#0D1A2E"/></linearGradient><linearGradient id="accent" x1="0%" x2="100%" y1="0%" y2="0%"><stop offset="0%" stop-color="#1F6FEB" stop-opacity="0"/><stop offset="20%" stop-color="#1F6FEB" stop-opacity=".5"/><stop offset="50%" stop-color="#58A6FF" stop-opacity=".9"/><stop offset="80%" stop-color="#1F6FEB" stop-opacity=".5"/><stop offset="100%" stop-color="#1F6FEB" stop-opacity="0"/></linearGradient><radialGradient id="glow" cx="50%" cy="50%" r="50%" gradientUnits="objectBoundingBox"><stop offset="0%" stop-color="#1F6FEB" stop-opacity=".15"/><stop offset="100%" stop-color="#1F6FEB" stop-opacity="0"/></radialGradient><linearGradient id="scan" x1="0%" x2="100%" y1="0%" y2="0%"><stop offset="0%" stop-color="#58A6FF" stop-opacity="0"/><stop offset="45%" stop-color="#58A6FF" stop-opacity="0"/><stop offset="50%" stop-color="#58A6FF" stop-opacity=".6"/><stop offset="55%" stop-color="#58A6FF" stop-opacity="0"/><stop offset="100%" stop-color="#58A6FF" stop-opacity="0"/></linearGradient></defs><rect width="1200" height="100" fill="url(#bg)"/><rect width="1200" height="100" fill="url(#glow)"/><g fill="#3B82F6" opacity=".12"><circle cx="100" cy="25" r="1"/><circle cx="200" cy="25" r="1"/><circle cx="300" cy="25" r="1"/><circle cx="400" cy="25" r="1"/><circle cx="500" cy="25" r="1"/><circle cx="600" cy="25" r="1"/><circle cx="700" cy="25" r="1"/><circle cx="800" cy="25" r="1"/><circle cx="900" cy="25" r="1"/><circle cx="1000" cy="25" r="1"/><circle cx="1100" cy="25" r="1"/><circle cx="100" cy="75" r="1"/><circle cx="200" cy="75" r="1"/><circle cx="300" cy="75" r="1"/><circle cx="400" cy="75" r="1"/><circle cx="500" cy="75" r="1"/><circle cx="600" cy="75" r="1"/><circle cx="700" cy="75" r="1"/><circle cx="800" cy="75" r="1"/><circle cx="900" cy="75" r="1"/><circle cx="1000" cy="75" r="1"/><circle cx="1100" cy="75" r="1"/></g><rect width="1200" height="100" fill="url(#scan)" opacity=".4"><animate attributeName="x" dur="7s" repeatCount="indefinite" values="-1200;1200"/></rect><circle cx="180" cy="50" r="2.5" fill="#58A6FF"><animate attributeName="opacity" dur="4.5s" repeatCount="indefinite" values="0.1;0.55;0.1"/><animate attributeName="r" dur="4.5s" repeatCount="indefinite" values="2;3;2"/></circle><circle cx="1020" cy="50" r="2.5" fill="#1F6FEB"><animate attributeName="opacity" begin="1.2s" dur="5.5s" repeatCount="indefinite" values="0.1;0.5;0.1"/><animate attributeName="r" begin="1.2s" dur="5.5s" repeatCount="indefinite" values="2;3;2"/></circle><circle cx="600" cy="90" r="2" fill="#58A6FF"><animate attributeName="r" dur="3s" repeatCount="indefinite" values="1.5;3.5;1.5"/><animate attributeName="opacity" dur="3s" repeatCount="indefinite" values="0.4;1;0.4"/></circle><text x="600" y="36" fill="#58A6FF" fill-opacity=".6" font-family="-apple-system,BlinkMacSystemFont,'Segoe UI',Helvetica,Arial,sans-serif" font-size="10" font-weight="500" letter-spacing="4" text-anchor="middle">PHILOSOPHY</text><text x="600" y="68" fill="#E6EDF3" font-family="-apple-system,BlinkMacSystemFont,'Segoe UI',Helvetica,Arial,sans-serif" font-size="28" font-weight="700" letter-spacing="-.5" text-anchor="middle">Why I Build</text><line x1="0" x2="1200" y1="99" y2="99" stroke="url(#accent)" stroke-width="1"><animate attributeName="opacity" dur="4s" repeatCount="indefinite" values="0.7;1;0.7"/></line><rect width="1199" height="99" x=".5" y=".5" fill="none" stroke="#21262D" stroke-width="1"/></svg>